<svg xmlns="http://www.w3.org/2000/svg" width="1200" height="560" viewBox="0 0 1200 560" role="img" aria-label="Workflow run summary panel">
  <rect width="1200" height="560" fill="#f6f8fa"/>
  <rect x="80" y="44" width="1040" height="440" rx="18" fill="#ffffff" stroke="#d0d7de"/>
  <path d="M98 44h1004a18 18 0 0 1 18 18v26H80V62a18 18 0 0 1 18-18Z" fill="#ffffff" stroke="#d0d7de"/>
  <circle cx="112" cy="66" r="6" fill="#ff5f57"/>
  <circle cx="132" cy="66" r="6" fill="#febc2e"/>
  <circle cx="152" cy="66" r="6" fill="#28c840"/>
  <rect x="250" y="55" width="620" height="22" rx="11" fill="#f6f8fa" stroke="#d0d7de"/>
  <text x="560" y="70" fill="#57606a" font-family="Arial, sans-serif" font-size="14" text-anchor="middle">github.com/yourorg/your-repo/actions</text>
  <rect x="80" y="88" width="1040" height="54" fill="#ffffff"/>
  <text x="118" y="121" fill="#57606a" font-family="Arial, sans-serif" font-size="18">Code</text>
  <text x="196" y="121" fill="#57606a" font-family="Arial, sans-serif" font-size="18">Issues</text>
  <text x="283" y="121" fill="#57606a" font-family="Arial, sans-serif" font-size="18">Pull requests</text>
  <text x="438" y="121" fill="#24292f" font-family="Arial, sans-serif" font-size="18" font-weight="700">Actions</text>
  <line x1="424" y1="132" x2="493" y2="132" stroke="#0969da" stroke-width="4" stroke-linecap="round"/>
  <line x1="80" y1="142" x2="1120" y2="142" stroke="#d0d7de"/>
  <rect x="124" y="170" width="420" height="246" rx="14" fill="#ffffff" stroke="#d0d7de"/>
  <text x="156" y="212" fill="#24292f" font-family="Arial, sans-serif" font-size="28" font-weight="700">Workflow run summary</text>
  <text x="156" y="248" fill="#57606a" font-family="Arial, sans-serif" font-size="20">Status</text>
  <text x="156" y="284" fill="#24292f" font-family="Arial, sans-serif" font-size="32" font-weight="700">Success</text>
  <circle cx="292" cy="273" r="14" fill="#3fb950"/>
  <text x="292" y="279" fill="#ffffff" font-family="Arial, sans-serif" font-size="18" font-weight="700" text-anchor="middle">✓</text>
  <text x="156" y="332" fill="#57606a" font-family="Arial, sans-serif" font-size="18">Completed steps</text>
  <text x="156" y="365" fill="#24292f" font-family="Arial, sans-serif" font-size="20">Set up job ✓</text>
  <text x="156" y="393" fill="#24292f" font-family="Arial, sans-serif" font-size="20">Run agent ✓</text>
  <text x="156" y="421" fill="#24292f" font-family="Arial, sans-serif" font-size="20">Post actions ✓</text>
  <rect x="576" y="170" width="500" height="246" rx="14" fill="#0d1117" stroke="#30363d"/>
  <text x="606" y="206" fill="#c9d1d9" font-family="Courier New, monospace" font-size="20">jobs / daily-report-status</text>
  <text x="606" y="246" fill="#c9d1d9" font-family="Courier New, monospace" font-size="18">✓ Set up job</text>
  <text x="606" y="282" fill="#c9d1d9" font-family="Courier New, monospace" font-size="18">✓ Run agent</text>
  <text x="606" y="318" fill="#c9d1d9" font-family="Courier New, monospace" font-size="18">✓ Post actions</text>
  <text x="606" y="366" fill="#c9d1d9" font-family="Courier New, monospace" font-size="16">safe-output: summary written</text>
  <text x="606" y="394" fill="#c9d1d9" font-family="Courier New, monospace" font-size="16">issue comment updated successfully</text>
  <text x="600" y="525" fill="#57606a" font-family="Arial, sans-serif" font-size="24" text-anchor="middle">Workflow run summary panel</text>
</svg>
