<svg xmlns="http://www.w3.org/2000/svg" width="1200" height="560" viewBox="0 0 1200 560" role="img" aria-label="Skipped step in GitHub Actions">
  <rect width="1200" height="560" fill="#0d1117"/>
  <rect x="24" y="24" width="1152" height="500" rx="16" fill="#161b22" stroke="#30363d"/>
  <path d="M40 24h1120a16 16 0 0 1 16 16v28H24V40a16 16 0 0 1 16-16z" fill="#161b22" stroke="#30363d"/>
  <circle cx="52" cy="46" r="6" fill="#30363d"/>
  <circle cx="72" cy="46" r="6" fill="#30363d"/>
  <circle cx="92" cy="46" r="6" fill="#30363d"/>
  <rect x="134" y="34" width="560" height="24" rx="12" fill="#0d1117" stroke="#30363d"/>
  <text x="154" y="50" font-family="Arial, sans-serif" font-size="14" fill="#8b949e">github.com/your-org/my-practice-repo/actions</text>
  <text x="56" y="96" font-family="Arial, sans-serif" font-size="18" fill="#f0f6fc">Code</text>
  <text x="124" y="96" font-family="Arial, sans-serif" font-size="18" fill="#f0f6fc">Issues</text>
  <text x="196" y="96" font-family="Arial, sans-serif" font-size="18" fill="#f0f6fc">Pull requests</text>
  <text x="338" y="96" font-family="Arial, sans-serif" font-size="18" font-weight="700" fill="#f0f6fc">Actions</text>
  <text x="428" y="96" font-family="Arial, sans-serif" font-size="18" fill="#f0f6fc">Projects</text>
  <line x1="336" y1="108" x2="406" y2="108" stroke="#2f81f7" stroke-width="4" stroke-linecap="round"/>
  <line x1="40" y1="120" x2="1160" y2="120" stroke="#30363d"/>
  <rect x="120" y="150" width="960" height="300" rx="12" fill="#161b22" stroke="#30363d"/>
  <text x="156" y="192" font-family="Arial, sans-serif" font-size="28" font-weight="700" fill="#f0f6fc">Workflow run details</text>
  <text x="156" y="224" font-family="Arial, sans-serif" font-size="18" fill="#8b949e">Job steps</text>
  <rect x="156" y="246" width="888" height="58" rx="10" fill="#0d1117" stroke="#30363d"/>
  <circle cx="188" cy="275" r="14" fill="#238636"/>
  <path d="M181 275l5 5 9-11" fill="none" stroke="#ffffff" stroke-width="3" stroke-linecap="round" stroke-linejoin="round"/>
  <text x="216" y="281" font-family="Arial, sans-serif" font-size="20" fill="#f0f6fc">Set up job</text>
  <text x="940" y="281" font-family="Arial, sans-serif" font-size="18" fill="#8b949e">Completed</text>
  <rect x="156" y="316" width="888" height="58" rx="10" fill="#0d1117" stroke="#30363d"/>
  <circle cx="188" cy="345" r="14" fill="#6e7681"/>
  <line x1="182" y1="345" x2="194" y2="345" stroke="#ffffff" stroke-width="3" stroke-linecap="round"/>
  <text x="216" y="351" font-family="Arial, sans-serif" font-size="20" fill="#f0f6fc">Run agent</text>
  <text x="956" y="351" font-family="Arial, sans-serif" font-size="18" fill="#8b949e">Skipped</text>
  <rect x="156" y="386" width="888" height="58" rx="10" fill="#0d1117" stroke="#30363d"/>
  <circle cx="188" cy="415" r="14" fill="#6e7681"/>
  <line x1="182" y1="415" x2="194" y2="415" stroke="#ffffff" stroke-width="3" stroke-linecap="round"/>
  <text x="216" y="421" font-family="Arial, sans-serif" font-size="20" fill="#f0f6fc">Post actions</text>
  <text x="956" y="421" font-family="Arial, sans-serif" font-size="18" fill="#8b949e">Skipped</text>
  <text x="600" y="504" text-anchor="middle" font-family="Arial, sans-serif" font-size="24" fill="#8b949e">Skipped step in GitHub Actions</text>
</svg>
