<svg xmlns="http://www.w3.org/2000/svg" role="img" aria-label="Job step list with a skipped step shown in grey" viewBox="0 0 1200 560" width="1200" height="560">
  <defs>
    <clipPath id="clip-job-header"><rect x="88" y="136" width="300" height="24" rx="2"/></clipPath>
    <clipPath id="clip-step-1"><rect x="126" y="212" width="190" height="18" rx="2"/></clipPath>
    <clipPath id="clip-step-2"><rect x="126" y="260" width="190" height="18" rx="2"/></clipPath>
    <clipPath id="clip-step-3"><rect x="126" y="308" width="190" height="18" rx="2"/></clipPath>
    <clipPath id="clip-step-4"><rect x="126" y="356" width="190" height="18" rx="2"/></clipPath>
    <clipPath id="clip-step-5"><rect x="126" y="404" width="190" height="18" rx="2"/></clipPath>
  </defs>
  <rect width="1200" height="560" fill="#0d1117"/>
  <rect x="26" y="18" width="1148" height="44" rx="12" ry="12" fill="#161b22" stroke="#30363d"/>
  <rect x="26" y="40" width="1148" height="22" fill="#161b22"/>
  <circle cx="52" cy="40" r="5" fill="#30363d"/>
  <circle cx="70" cy="40" r="5" fill="#30363d"/>
  <circle cx="88" cy="40" r="5" fill="#30363d"/>
  <rect x="238" y="28" width="632" height="24" rx="12" fill="#0d1117" stroke="#30363d"/>
  <text x="554" y="44" font-family="Arial, sans-serif" font-size="12" fill="#8b949e" text-anchor="middle">github.com/your-org/your-repo/actions</text>

  <rect x="26" y="62" width="1148" height="46" fill="#161b22" stroke="#30363d"/>
  <g font-family="Arial, sans-serif" font-size="14" fill="#8b949e">
    <text x="56" y="90">Code</text>
    <text x="116" y="90">Issues</text>
    <text x="182" y="90">Pull requests</text>
    <text x="304" y="90" fill="#2f81f7" font-weight="700">Actions</text>
    <text x="388" y="90">Projects</text>
    <text x="468" y="90">Wiki</text>
    <text x="520" y="90">Security</text>
    <text x="604" y="90">Insights</text>
  </g>
  <rect x="302" y="97" width="58" height="3" rx="2" fill="#2f81f7"/>

  <rect x="44" y="122" width="1112" height="352" rx="10" fill="#161b22" stroke="#30363d"/>
  <circle cx="74" cy="148" r="14" fill="#1f883d"/>
  <path d="M68 148l4 4 8-9" fill="none" stroke="#ffffff" stroke-width="2.2" stroke-linecap="round" stroke-linejoin="round"/>
  <text x="96" y="152" clip-path="url(#clip-job-header)" font-family="Arial, sans-serif" font-size="24" font-weight="700" fill="#f0f6fc">run-report</text>
  <text x="96" y="176" font-family="Arial, sans-serif" font-size="13" fill="#8b949e">Job steps</text>

  <g font-family="Arial, sans-serif">
    <circle cx="88" cy="220" r="10" fill="#1f883d"/>
    <path d="M83 220l4 4 7-8" fill="none" stroke="#ffffff" stroke-width="2.2" stroke-linecap="round" stroke-linejoin="round"/>
    <text x="126" y="217" clip-path="url(#clip-step-1)" font-size="15" font-weight="700" fill="#f0f6fc">Set up job</text>
    <text x="126" y="236" font-size="12" fill="#8b949e">2s</text>

    <circle cx="88" cy="268" r="10" fill="#1f883d"/>
    <path d="M83 268l4 4 7-8" fill="none" stroke="#ffffff" stroke-width="2.2" stroke-linecap="round" stroke-linejoin="round"/>
    <text x="126" y="265" clip-path="url(#clip-step-2)" font-size="15" font-weight="700" fill="#f0f6fc">Checkout</text>
    <text x="126" y="284" font-size="12" fill="#8b949e">1s</text>

    <circle cx="88" cy="316" r="10" fill="#1f883d"/>
    <path d="M83 316l4 4 7-8" fill="none" stroke="#ffffff" stroke-width="2.2" stroke-linecap="round" stroke-linejoin="round"/>
    <text x="126" y="313" clip-path="url(#clip-step-3)" font-size="15" font-weight="700" fill="#f0f6fc">Run report</text>
    <text x="126" y="332" font-size="12" fill="#8b949e">8s</text>

    <circle cx="88" cy="364" r="10" fill="#8b949e"/>
    <path d="M83 364h10" fill="none" stroke="#ffffff" stroke-width="2.2" stroke-linecap="round"/>
    <text x="126" y="361" clip-path="url(#clip-step-4)" font-size="15" font-weight="700" fill="#8b949e">Notify Slack</text>
    <text x="126" y="380" font-size="12" fill="#8b949e">Skipped</text>
    <rect x="994" y="349" width="76" height="28" rx="14" fill="#30363d" stroke="#8b949e"/>
    <text x="1032" y="367" font-size="12" font-weight="700" fill="#8b949e" text-anchor="middle">skipped</text>

    <circle cx="88" cy="412" r="10" fill="#1f883d"/>
    <path d="M83 412l4 4 7-8" fill="none" stroke="#ffffff" stroke-width="2.2" stroke-linecap="round" stroke-linejoin="round"/>
    <text x="126" y="409" clip-path="url(#clip-step-5)" font-size="15" font-weight="700" fill="#f0f6fc">Complete job</text>
    <text x="126" y="428" font-size="12" fill="#8b949e">1s</text>
  </g>

  <text x="600" y="528" font-family="Arial, sans-serif" font-size="24" fill="#8b949e" text-anchor="middle">Conditional step skipped when SLACK_WEBHOOK secret is not configured</text>
</svg>
